<?xml version="1.0" encoding="UTF-8" standalone="no"?>
<!DOCTYPE svg PUBLIC "-//W3C//DTD SVG 1.1//EN" "http://www.w3.org/Graphics/SVG/1.1/DTD/svg11.dtd">
<svg width="100%" height="100%" viewBox="0 0 400 400" version="1.1" xmlns="http://www.w3.org/2000/svg" xmlns:xlink="http://www.w3.org/1999/xlink" xml:space="preserve" xmlns:serif="http://www.serif.com/" style="fill-rule:evenodd;clip-rule:evenodd;stroke-linejoin:round;stroke-miterlimit:2;">
    <g transform="matrix(0.876523,0,0,0.964858,49.3908,14.0566)">
        <rect x="-56.349" y="-14.569" width="456.349" height="414.569"/>
    </g>
    <g transform="matrix(1.0576,0,0,0.992581,-7.59882,1.2503)">
        <path d="M189.329,96.034C189.329,79.3 176.578,65.715 160.874,65.715L98.496,65.715C82.792,65.715 70.042,79.3 70.042,96.034L70.042,162.463C70.042,179.196 82.792,192.781 98.496,192.781L160.874,192.781C176.578,192.781 189.329,179.196 189.329,162.463L189.329,96.034Z" style="fill:white;"/>
    </g>
    <g transform="matrix(1.0576,0,0,0.992581,133.288,1.2503)">
        <path d="M189.329,96.034C189.329,79.3 176.578,65.715 160.874,65.715L98.496,65.715C82.792,65.715 70.042,79.3 70.042,96.034L70.042,162.463C70.042,179.196 82.792,192.781 98.496,192.781L160.874,192.781C176.578,192.781 189.329,179.196 189.329,162.463L189.329,96.034Z" style="fill:white;"/>
    </g>
    <g transform="matrix(6.47596e-17,1.0576,-0.992581,6.07781e-17,398.715,133.288)">
        <path d="M189.329,96.034C189.329,79.3 176.578,65.715 160.874,65.715L98.496,65.715C82.792,65.715 70.042,79.3 70.042,96.034L70.042,162.463C70.042,179.196 82.792,192.781 98.496,192.781L160.874,192.781C176.578,192.781 189.329,179.196 189.329,162.463L189.329,96.034Z" style="fill:white;"/>
    </g>
    <g transform="matrix(6.47596e-17,1.0576,-0.992581,6.07781e-17,257.863,133.288)">
        <path d="M189.329,96.034C189.329,79.3 176.578,65.715 160.874,65.715L98.496,65.715C82.792,65.715 70.042,79.3 70.042,96.034L70.042,162.463C70.042,179.196 82.792,192.781 98.496,192.781L160.874,192.781C176.578,192.781 189.329,179.196 189.329,162.463L189.329,96.034Z" style="fill:white;"/>
    </g>
    <g transform="matrix(1.19941,0,0,1.02658,-21.9206,-3.6348)">
        <path d="M165.726,105.768C165.726,93.563 157.245,83.654 146.799,83.654L105.788,83.654C95.342,83.654 86.86,93.563 86.86,105.768L86.86,153.683C86.86,165.888 95.342,175.797 105.788,175.797L146.799,175.797C157.245,175.797 165.726,165.888 165.726,153.683L165.726,105.768Z"/>
    </g>
    <g transform="matrix(1.19941,0,0,1.02658,118.966,-3.6348)">
        <path d="M165.726,105.768C165.726,93.563 157.245,83.654 146.799,83.654L105.788,83.654C95.342,83.654 86.86,93.563 86.86,105.768L86.86,153.683C86.86,165.888 95.342,175.797 105.788,175.797L146.799,175.797C157.245,175.797 165.726,165.888 165.726,153.683L165.726,105.768Z"/>
    </g>
    <g transform="matrix(1.19941,0,0,1.02658,118.949,137.269)">
        <path d="M165.726,105.768C165.726,93.563 157.245,83.654 146.799,83.654L105.788,83.654C95.342,83.654 86.86,93.563 86.86,105.768L86.86,153.683C86.86,165.888 95.342,175.797 105.788,175.797L146.799,175.797C157.245,175.797 165.726,165.888 165.726,153.683L165.726,105.768Z"/>
    </g>
    <g transform="matrix(1.19941,0,0,1.02658,-21.9034,137.269)">
        <path d="M165.726,105.768C165.726,93.563 157.245,83.654 146.799,83.654L105.788,83.654C95.342,83.654 86.86,93.563 86.86,105.768L86.86,153.683C86.86,165.888 95.342,175.797 105.788,175.797L146.799,175.797C157.245,175.797 165.726,165.888 165.726,153.683L165.726,105.768Z"/>
    </g>
    <g id="background-thingy" serif:id="background thingy" transform="matrix(1.36192,0,0,1.36192,18.8742,-163.663)">
        <clipPath id="_clip1">
            <rect x="72.993" y="289.746" width="37.261" height="37.293"/>
        </clipPath>
        <g clip-path="url(#_clip1)">
            <g transform="matrix(6.16153e-17,1.00625,-0.944388,5.78271e-17,255.054,136.527)">
                <path d="M189.329,78.098C189.329,71.264 184.121,65.715 177.707,65.715L81.664,65.715C75.249,65.715 70.042,71.264 70.042,78.098L70.042,180.398C70.042,187.233 75.249,192.781 81.664,192.781L177.707,192.781C184.121,192.781 189.329,187.233 189.329,180.398L189.329,78.098Z" style="fill:white;"/>
            </g>
            <g transform="matrix(1.27209,0,0,1.08879,-27.6631,125.779)">
                <path d="M165.726,88.261C165.726,85.718 163.96,83.654 161.783,83.654L90.804,83.654C88.627,83.654 86.86,85.718 86.86,88.261L86.86,171.19C86.86,173.733 88.627,175.797 90.804,175.797L161.783,175.797C163.96,175.797 165.726,173.733 165.726,171.19L165.726,88.261Z"/>
            </g>
        </g>
    </g>
    <g id="background-thingy1" serif:id="background thingy" transform="matrix(1.36192,0,0,1.36192,18.8742,-163.663)">
        <clipPath id="_clip2">
            <rect x="155.733" y="289.746" width="37.261" height="37.293"/>
        </clipPath>
        <g clip-path="url(#_clip2)">
            <g transform="matrix(6.16153e-17,1.00625,-0.944388,5.78271e-17,255.054,136.527)">
                <path d="M189.329,78.098C189.329,71.264 184.121,65.715 177.707,65.715L81.664,65.715C75.249,65.715 70.042,71.264 70.042,78.098L70.042,180.398C70.042,187.233 75.249,192.781 81.664,192.781L177.707,192.781C184.121,192.781 189.329,187.233 189.329,180.398L189.329,78.098Z" style="fill:white;"/>
            </g>
            <g transform="matrix(1.27209,0,0,1.08879,-27.6631,125.779)">
                <path d="M165.726,88.261C165.726,85.718 163.96,83.654 161.783,83.654L90.804,83.654C88.627,83.654 86.86,85.718 86.86,88.261L86.86,171.19C86.86,173.733 88.627,175.797 90.804,175.797L161.783,175.797C163.96,175.797 165.726,173.733 165.726,171.19L165.726,88.261Z"/>
            </g>
        </g>
    </g>
    <g id="background-thingy2" serif:id="background thingy" transform="matrix(1.36192,0,0,1.36192,18.8742,-163.663)">
        <clipPath id="_clip3">
            <rect x="155.733" y="207.007" width="37.261" height="37.293"/>
        </clipPath>
        <g clip-path="url(#_clip3)">
            <g transform="matrix(6.16153e-17,1.00625,-0.944388,5.78271e-17,255.054,136.527)">
                <path d="M189.329,78.098C189.329,71.264 184.121,65.715 177.707,65.715L81.664,65.715C75.249,65.715 70.042,71.264 70.042,78.098L70.042,180.398C70.042,187.233 75.249,192.781 81.664,192.781L177.707,192.781C184.121,192.781 189.329,187.233 189.329,180.398L189.329,78.098Z" style="fill:white;"/>
            </g>
            <g transform="matrix(1.27209,0,0,1.08879,-27.6631,125.779)">
                <path d="M165.726,88.261C165.726,85.718 163.96,83.654 161.783,83.654L90.804,83.654C88.627,83.654 86.86,85.718 86.86,88.261L86.86,171.19C86.86,173.733 88.627,175.797 90.804,175.797L161.783,175.797C163.96,175.797 165.726,173.733 165.726,171.19L165.726,88.261Z"/>
            </g>
        </g>
    </g>
    <g id="background-thingy3" serif:id="background thingy" transform="matrix(1.36192,0,0,1.36192,18.8742,-163.663)">
        <clipPath id="_clip4">
            <rect x="72.993" y="207.007" width="37.261" height="37.293"/>
        </clipPath>
        <g clip-path="url(#_clip4)">
            <g transform="matrix(6.16153e-17,1.00625,-0.944388,5.78271e-17,255.054,136.527)">
                <path d="M189.329,78.098C189.329,71.264 184.121,65.715 177.707,65.715L81.664,65.715C75.249,65.715 70.042,71.264 70.042,78.098L70.042,180.398C70.042,187.233 75.249,192.781 81.664,192.781L177.707,192.781C184.121,192.781 189.329,187.233 189.329,180.398L189.329,78.098Z" style="fill:white;"/>
            </g>
            <g transform="matrix(1.27209,0,0,1.08879,-27.6631,125.779)">
                <path d="M165.726,88.261C165.726,85.718 163.96,83.654 161.783,83.654L90.804,83.654C88.627,83.654 86.86,85.718 86.86,88.261L86.86,171.19C86.86,173.733 88.627,175.797 90.804,175.797L161.783,175.797C163.96,175.797 165.726,173.733 165.726,171.19L165.726,88.261Z"/>
            </g>
        </g>
    </g>
</svg>
